<?xml version="1.0" standalone="no"?>
<!DOCTYPE svg PUBLIC "-//W3C//DTD SVG 20010904//EN"
 "http://www.w3.org/TR/2001/REC-SVG-20010904/DTD/svg10.dtd">
<svg version="1.0" xmlns="http://www.w3.org/2000/svg"
 width="681.000000pt" height="681.000000pt" viewBox="0 0 681.000000 681.000000"
 preserveAspectRatio="xMidYMid meet">

<g transform="translate(0.000000,681.000000) scale(0.100000,-0.100000)"
fill="#000000" stroke="none">
<path d="M0 3405 l0 -3405 3405 0 3405 0 0 3405 0 3405 -3405 0 -3405 0 0
-3405z m3816 631 c110 -22 217 -60 274 -96 61 -39 147 -130 165 -175 28 -66
30 -65 -125 -65 l-140 0 -35 39 c-69 76 -230 121 -435 121 -149 0 -267 -22
-350 -66 -144 -75 -124 -166 46 -204 26 -6 151 -20 277 -30 343 -30 528 -65
639 -121 59 -30 123 -93 149 -147 32 -66 32 -177 0 -249 -30 -68 -113 -146
-194 -183 -145 -65 -423 -108 -617 -95 -295 19 -492 88 -619 215 -45 45 -111
156 -111 187 0 10 30 13 145 13 106 0 145 -3 145 -12 0 -24 54 -88 99 -117 83
-53 175 -73 372 -78 206 -6 305 8 409 60 142 70 150 182 18 246 -77 37 -122
45 -408 71 -313 29 -497 62 -582 106 -48 25 -110 86 -129 129 -23 50 -24 136
-2 200 44 130 228 229 488 264 104 14 425 6 521 -13z m-1673 -29 c207 -64 353
-177 429 -332 42 -85 53 -142 53 -270 0 -183 -41 -284 -164 -405 -119 -118
-271 -187 -461 -210 -47 -5 -307 -10 -587 -10 l-503 0 0 631 0 630 573 -3 572
-4 88 -27z m2697 -82 l0 -75 125 0 125 0 0 -65 0 -65 -125 0 -125 0 0 -75 0
-75 -70 0 -70 0 0 75 0 74 -122 3 -123 3 0 60 0 60 123 3 122 3 0 68 c0 37 3
71 7 74 3 4 35 7 70 7 l63 0 0 -75z m-211 -662 c22 -37 38 -70 35 -73 -3 -3
-11 3 -18 13 -17 23 -124 25 -132 2 -4 -8 -12 -15 -20 -15 -8 0 2 25 29 70 23
39 47 70 54 70 6 0 30 -30 52 -67z m249 6 l40 -62 39 62 c51 81 63 79 63 -9 0
-81 -18 -95 -22 -18 l-3 53 -34 -53 c-18 -28 -38 -52 -45 -52 -6 0 -27 24 -46
53 l-35 52 -3 -52 c-4 -78 -22 -64 -22 17 0 89 14 91 68 9z m212 19 c0 -50 22
-78 62 -78 53 0 68 15 68 70 0 28 5 50 10 50 15 0 12 -106 -3 -119 -34 -28
-111 -26 -141 5 -18 17 -23 114 -6 114 6 0 10 -19 10 -42z m220 -18 l0 -60 60
0 c33 0 60 -4 60 -10 0 -6 -30 -10 -70 -10 l-70 0 0 70 c0 40 4 70 10 70 6 0
10 -27 10 -60z m290 50 c0 -5 -16 -10 -35 -10 l-35 0 0 -60 c0 -33 -4 -60 -10
-60 -6 0 -10 27 -10 60 l0 60 -40 0 c-22 0 -40 5 -40 10 0 6 35 10 85 10 50 0
85 -4 85 -10z m70 -60 c0 -40 -4 -70 -10 -70 -6 0 -10 30 -10 70 0 40 4 70 10
70 6 0 10 -30 10 -70z m180 -20 c0 -6 -27 -10 -60 -10 -33 0 -60 4 -60 10 0 6
27 10 60 10 33 0 60 -4 60 -10z m-1296 -170 c21 -33 40 -60 41 -60 2 0 20 27
41 60 50 81 64 79 64 -10 0 -81 -18 -95 -22 -17 l-3 52 -34 -52 c-19 -29 -40
-53 -47 -53 -7 0 -27 24 -46 53 l-33 52 -3 -52 c-4 -78 -22 -64 -22 17 0 88
12 90 64 10z m346 50 c0 -6 -28 -10 -65 -10 -58 0 -65 -2 -65 -20 0 -18 7 -20
60 -20 33 0 60 -4 60 -10 0 -6 -27 -10 -60 -10 -53 0 -60 -2 -60 -20 0 -18 7
-20 65 -20 37 0 65 -4 65 -10 0 -6 -32 -10 -75 -10 l-75 0 0 70 0 70 75 0 c43
0 75 -4 75 -10z m204 -11 c17 -13 26 -30 26 -49 0 -46 -40 -70 -116 -70 l-64
0 0 70 0 70 64 0 c49 0 69 -5 90 -21z m96 -49 c0 -40 -4 -70 -10 -70 -6 0 -10
30 -10 70 0 40 4 70 10 70 6 0 10 -30 10 -70z m183 3 c20 -36 35 -69 31 -72
-3 -3 -11 2 -18 12 -10 12 -27 17 -66 17 -39 0 -56 -5 -66 -17 -7 -10 -15 -15
-19 -11 -6 5 6 27 61 116 8 12 20 22 27 22 6 0 29 -30 50 -67z m-745 -159 c20
-9 32 -18 25 -21 -7 -2 -21 0 -32 6 -47 26 -121 2 -121 -37 0 -46 82 -70 126
-37 28 21 40 18 20 -4 -33 -36 -117 -39 -151 -4 -20 20 -19 66 3 85 36 32 76
35 130 12z m242 -9 c25 -23 26 -67 1 -89 -25 -22 -88 -31 -124 -17 -56 22 -59
98 -5 121 33 14 106 5 128 -15z m128 -35 c20 -33 39 -60 42 -59 3 0 22 27 42
59 21 33 42 60 48 60 6 0 10 -29 10 -70 0 -40 -4 -70 -10 -70 -5 0 -10 24 -10
52 l0 53 -35 -53 c-20 -28 -40 -52 -45 -52 -5 0 -25 24 -45 52 l-35 53 0 -53
c0 -28 -4 -52 -10 -52 -6 0 -10 30 -10 70 0 42 4 70 10 70 6 0 28 -27 48 -60z
m333 50 c11 -6 19 -21 19 -35 0 -31 -26 -45 -84 -45 -42 0 -46 -2 -46 -25 0
-14 -4 -25 -10 -25 -6 0 -10 30 -10 70 l0 70 56 0 c30 0 64 -5 75 -10z m178
-57 c22 -37 38 -70 35 -73 -3 -3 -11 3 -18 13 -17 23 -124 25 -132 2 -4 -8
-12 -15 -20 -15 -8 0 2 25 29 70 23 39 47 70 54 70 6 0 30 -30 52 -67z m178 5
l63 -62 0 62 c0 35 4 62 10 62 6 0 10 -30 10 -70 0 -44 -4 -70 -11 -70 -6 0
-39 25 -72 56 l-62 56 -3 -56 c-4 -80 -22 -69 -22 14 0 49 4 70 12 70 7 0 41
-28 75 -62z m190 30 l33 -32 33 32 c50 48 67 38 19 -11 -28 -29 -42 -51 -42
-70 0 -15 -4 -27 -10 -27 -5 0 -10 12 -10 27 0 19 -14 41 -42 70 -48 49 -31
59 19 11z"/>
<path d="M1180 3415 l0 -415 403 0 c438 0 470 3 569 57 64 35 133 110 166 181
25 52 27 67 27 182 0 121 -1 127 -32 191 -37 75 -88 126 -165 165 -91 46 -167
53 -585 54 l-383 0 0 -415z"/>
<path d="M4557 3280 c-23 -39 -22 -40 23 -40 l41 0 -16 29 c-21 42 -29 44 -48
11z"/>
<path d="M4970 3060 l0 -50 53 0 c40 0 58 5 70 18 39 43 5 82 -71 82 l-52 0 0
-50z"/>
<path d="M5309 3083 c-7 -16 -15 -31 -17 -35 -2 -5 15 -8 38 -8 23 0 40 3 38
8 -23 47 -32 62 -38 62 -4 0 -13 -12 -21 -27z"/>
<path d="M4750 2880 c-11 -11 -20 -24 -20 -30 0 -5 9 -19 20 -30 37 -37 130
-16 130 30 0 46 -93 67 -130 30z"/>
<path d="M5230 2875 c0 -25 2 -26 53 -23 44 3 52 6 52 23 0 17 -8 20 -52 23
-51 3 -53 2 -53 -23z"/>
<path d="M5447 2870 c-23 -39 -22 -40 23 -40 l41 0 -16 29 c-21 42 -29 44 -48
11z"/>
</g>
</svg>
